<svg id="Layer_1" data-name="Layer 1" xmlns="http://www.w3.org/2000/svg" viewBox="0 0 1742.99 155.35"><defs><style>.cls-1{fill:#fff;}.cls-2,.cls-3,.cls-4{fill:none;stroke:#fff;stroke-miterlimit:10;}.cls-2{stroke-width:4.79px;}.cls-3{stroke-width:3px;}.cls-4{stroke-width:2.13px;}</style></defs><title>menu</title><path class="cls-1" d="M174.67,260.81l-20,52.63H153l-20.56-52.63h1.4l19.9,50.71h.15l19.31-50.71Z" transform="translate(-100.72 -219.5)"/><path class="cls-1" d="M181.75,260.81v52.63h-1.48V260.81Z" transform="translate(-100.72 -219.5)"/><path class="cls-1" d="M209.61,260.81a27.24,27.24,0,0,1,7.92,1.22,18.28,18.28,0,0,1,7.23,4.2A22,22,0,0,1,230,274.3a35,35,0,0,1,2,12.83A31.61,31.61,0,0,1,230,299.21,21.43,21.43,0,0,1,216.54,312a29,29,0,0,1-9.22,1.47H191.18V260.81ZM207.69,312a25.81,25.81,0,0,0,8.81-1.51,20.32,20.32,0,0,0,7.3-4.57,21.47,21.47,0,0,0,4.94-7.74,30.67,30.67,0,0,0,1.8-11A34.26,34.26,0,0,0,228.7,275a20.26,20.26,0,0,0-4.86-7.62,16.67,16.67,0,0,0-6.82-3.95,27.91,27.91,0,0,0-7.78-1.1H192.66V312Z" transform="translate(-100.72 -219.5)"/><path class="cls-1" d="M271.23,312v1.47H236V260.81h34.93v1.48H237.47v23h31.47v1.48H237.47V312Z" transform="translate(-100.72 -219.5)"/><path class="cls-1" d="M274,287.13a34.9,34.9,0,0,1,1.58-10.62,26.38,26.38,0,0,1,4.64-8.77,22.14,22.14,0,0,1,7.6-6,25.72,25.72,0,0,1,20.86,0,22.1,22.1,0,0,1,7.59,6,26.38,26.38,0,0,1,4.64,8.77,36.23,36.23,0,0,1,0,21.23,26.29,26.29,0,0,1-4.64,8.77,21.79,21.79,0,0,1-7.59,5.94,26.15,26.15,0,0,1-20.86,0,21.83,21.83,0,0,1-7.6-5.94,26.29,26.29,0,0,1-4.64-8.77A34.88,34.88,0,0,1,274,287.13Zm1.47,0a34.48,34.48,0,0,0,1.66,10.46,24.62,24.62,0,0,0,4.49,8.26,20.61,20.61,0,0,0,7.12,5.42,24.14,24.14,0,0,0,19,0,20.43,20.43,0,0,0,7.12-5.42,24.62,24.62,0,0,0,4.49-8.26,33.82,33.82,0,0,0,0-20.93,24.71,24.71,0,0,0-4.49-8.26,20.4,20.4,0,0,0-7.12-5.41,24,24,0,0,0-19,0,20.58,20.58,0,0,0-7.12,5.41,24.71,24.71,0,0,0-4.49,8.26A34.49,34.49,0,0,0,275.43,287.13Z" transform="translate(-100.72 -219.5)"/><path class="cls-1" d="M370.15,313.44l-.67-9.58h-.14a17.68,17.68,0,0,1-7.6,8.14,18.74,18.74,0,0,1-5,1.88,25.55,25.55,0,0,1-5.57.59,24.8,24.8,0,0,1-10.87-2.25,22.59,22.59,0,0,1-7.78-6,25.63,25.63,0,0,1-4.64-8.7,35.63,35.63,0,0,1,0-20.79,26,26,0,0,1,4.64-8.73,22.34,22.34,0,0,1,7.78-6,24.8,24.8,0,0,1,10.87-2.25,27.25,27.25,0,0,1,7.81,1.1,20.19,20.19,0,0,1,6.56,3.32,20,20,0,0,1,4.87,5.45,21.5,21.5,0,0,1,2.73,7.6h-5a11.68,11.68,0,0,0-1.51-4.61,16,16,0,0,0-3.46-4.24,17.74,17.74,0,0,0-5.2-3.13,18,18,0,0,0-6.78-1.22,19,19,0,0,0-9,2,17.93,17.93,0,0,0-6.16,5.27,22.86,22.86,0,0,0-3.53,7.41,31.69,31.69,0,0,0,0,16.92A22.82,22.82,0,0,0,336,303a17.83,17.83,0,0,0,6.16,5.27,18.91,18.91,0,0,0,9,2,20,20,0,0,0,7.78-1.44,16.09,16.09,0,0,0,5.78-4,16.92,16.92,0,0,0,3.54-6.12,22.94,22.94,0,0,0,1.11-7.74H351.43v-4.28h22.33v26.76Z" transform="translate(-100.72 -219.5)"/><path class="cls-1" d="M404.42,260.81l20.64,52.63h-5.38l-6.41-16.36h-24L383,313.44h-5.31l21.16-52.63Zm7.15,32-10.17-27-10.54,27Z" transform="translate(-100.72 -219.5)"/><path class="cls-1" d="M435.23,260.81v52.63h-5V260.81Z" transform="translate(-100.72 -219.5)"/><path class="cls-1" d="M448.79,260.81l30.67,44.52h.14V260.81h5v52.63H479l-30.66-44.52h-.15v44.52h-5V260.81Z" transform="translate(-100.72 -219.5)"/><polyline class="cls-2" points="347.6 121.59 354.49 114.69 361.39 107.79"/><polyline class="cls-2" points="361.39 121.59 354.49 114.69 347.6 107.79"/><polyline class="cls-2" points="341.69 114.69 331.93 114.69 322.18 114.69"/><polyline class="cls-2" points="331.93 104.94 331.93 114.69 331.93 124.45"/><polyline class="cls-2" points="383.62 114.69 376.1 114.69 366.35 114.69"/><rect class="cls-3" x="1.5" y="1.5" width="1739.99" height="152.35" rx="36"/><rect class="cls-3" x="429.26" y="1.5" width="1312.23" height="152.35" rx="36"/><line class="cls-4" x1="909.99" y1="53.21" x2="909.99" y2="107.79"/><line class="cls-4" x1="1299.24" y1="53.21" x2="1299.24" y2="107.79"/></svg>